<?xml version="1.0" encoding="iso-8859-1"?>
<!-- Generator: Adobe Illustrator 19.0.0, SVG Export Plug-In . SVG Version: 6.00 Build 0)  -->
<svg version="1.1" id="Capa_1" xmlns="http://www.w3.org/2000/svg" xmlns:xlink="http://www.w3.org/1999/xlink" x="0px" y="0px"
	 viewBox="0 0 512.028 512.028" style="enable-background:new 0 0 512.028 512.028;" xml:space="preserve">
<g transform="translate(-1 -1)">
	<path style="fill:#BDC3C7;" d="M89.282,1.022h335.448c9.751,0,17.655,7.904,17.655,17.655v476.69
		c0,9.751-7.905,17.655-17.655,17.655H89.282c-9.751,0-17.655-7.904-17.655-17.655V18.677C71.627,8.927,79.532,1.022,89.282,1.022z"
		/>
	<path style="fill:#95A5A5;" d="M442.386,18.677v17.655H71.627V18.677c0.028-9.739,7.916-17.627,17.655-17.655h335.448
		C434.469,1.051,442.357,8.938,442.386,18.677L442.386,18.677z"/>
	<path style="fill:#547580;" d="M133.42,106.953v17.655c0,9.751,7.904,17.655,17.655,17.655h158.897
		c9.751,0,17.655,7.904,17.655,17.655v54.529c-0.006,5.881-2.946,11.372-7.837,14.638c-4.891,3.266-11.089,3.878-16.524,1.63
		c-49.622-20.102-106.544-5.971-141.005,35.003s-38.626,99.476-10.317,144.918S234.6,478.13,286.569,465.26
		s89.745-57.733,93.578-111.135h0.446V106.953c0-9.751-7.904-17.655-17.655-17.655H151.075
		C141.325,89.298,133.42,97.202,133.42,106.953z"/>
	<circle style="fill:#84B5CB;" cx="257.006" cy="345.298" r="44.138"/>
	<g>
		<path style="fill:#FFFFFF;" d="M106.937,80.47c-2.337-0.035-4.575-0.949-6.268-2.56c-0.798-0.844-1.427-1.833-1.854-2.914
			c-0.943-2.138-0.943-4.573,0-6.711c0.426-1.08,1.055-2.068,1.854-2.91c2.083-2.07,5.061-2.964,7.94-2.383
			c0.586,0.081,1.154,0.259,1.681,0.526c0.562,0.194,1.095,0.462,1.586,0.797c0.464,0.325,0.908,0.679,1.328,1.06
			c0.799,0.842,1.428,1.83,1.854,2.909c0.453,1.062,0.693,2.203,0.706,3.358c-0.035,2.337-0.949,4.574-2.56,6.268
			c-0.44,0.353-0.888,0.707-1.328,1.056c-0.491,0.335-1.024,0.603-1.586,0.797c-0.528,0.266-1.096,0.445-1.681,0.53
			C108.058,80.395,107.499,80.454,106.937,80.47z"/>
		<path style="fill:#FFFFFF;" d="M106.937,486.539c-2.337-0.035-4.575-0.949-6.268-2.56c-1.629-1.682-2.546-3.927-2.56-6.268
			c0.014-1.155,0.254-2.296,0.707-3.358c0.448-1.068,1.075-2.052,1.854-2.909c2.106-2.031,5.063-2.919,7.94-2.383
			c0.586,0.081,1.154,0.259,1.681,0.526c0.562,0.194,1.095,0.462,1.586,0.797c0.44,0.353,0.888,0.707,1.328,1.06
			c3.414,3.481,3.414,9.054,0,12.534c-0.42,0.379-0.863,0.732-1.328,1.056c-0.491,0.335-1.024,0.603-1.586,0.797
			c-0.528,0.266-1.096,0.445-1.681,0.53C108.058,486.464,107.499,486.523,106.937,486.539L106.937,486.539z"/>
		<path style="fill:#FFFFFF;" d="M407.075,283.505c-2.337-0.035-4.575-0.949-6.268-2.56c-3.414-3.481-3.414-9.054,0-12.534
			c2.828-2.861,7.227-3.458,10.716-1.456c3.488,2.003,5.191,6.103,4.147,9.987C414.627,280.827,411.098,283.521,407.075,283.505z"/>
		<path style="fill:#FFFFFF;" d="M407.075,486.539c-2.337-0.035-4.575-0.949-6.268-2.56c-1.629-1.682-2.546-3.927-2.56-6.268
			c-0.033-1.159,0.21-2.31,0.707-3.358c0.448-1.068,1.075-2.052,1.854-2.909c3.539-3.267,8.995-3.267,12.534,0
			c0.779,0.857,1.406,1.841,1.854,2.909c0.453,1.062,0.693,2.203,0.706,3.358c0.023,2.348-0.9,4.607-2.56,6.267
			C411.682,485.639,409.423,486.562,407.075,486.539L407.075,486.539z"/>
	</g>
	<path style="fill:#7F6E5D;" d="M239.195,234.183l40.651,40.651L510.2,44.479c1.797-1.797,2.806-4.234,2.806-6.775
		c0-2.541-1.01-4.978-2.806-6.775L483.099,3.828c-1.797-1.797-4.234-2.806-6.775-2.806c-2.541,0-4.978,1.01-6.775,2.806
		L239.195,234.183z"/>
	<path style="fill:#B19046;" d="M279.871,274.854l-2.56,38.577c-2.102,30.138-8.861,59.767-20.039,87.835
		c-0.154,0.247-0.273,0.515-0.353,0.794c-2.207,5.65-4.679,11.123-7.328,16.508v0.088c-2.119,4.502-4.414,8.916-6.796,13.33
		l-38.754,71.062c-2.897,5.291-8.112,8.914-14.082,9.782c-5.97,0.868-12.001-1.12-16.284-5.368L56.797,390.583L28.813,362.6
		l-12.712-12.712l-9.534-9.534C2.32,336.071,0.332,330.04,1.2,324.07c0.868-5.97,4.49-11.185,9.782-14.082l71.061-38.753
		c4.15-2.207,8.299-4.414,12.624-6.444c0.265-0.088,0.529-0.265,0.794-0.353c5.386-2.648,10.858-5.12,16.509-7.327
		c28.286-11.417,58.197-18.299,88.628-20.392l38.577-2.56L279.871,274.854z"/>
	<path style="fill:#E4C05C;" d="M257.271,401.265c-0.154,0.247-0.273,0.515-0.353,0.794c-2.207,5.65-4.679,11.123-7.328,16.508
		v0.088l-22.333-21.363l-61.881,99.046c-0.367,0.561-0.813,1.066-1.324,1.501l-12.623-12.623l63.028-100.723l-21.627-21.628
		l-68.502,93.308c-0.272,0.371-0.567,0.725-0.883,1.059l-12.535-12.535l69.297-94.455l-16.421-16.419l-94.455,69.297l-12.535-12.535
		c0.334-0.316,0.688-0.611,1.058-0.883l93.308-68.502l-21.628-21.627L28.813,362.6l-12.712-12.712
		c0.473-0.48,1.007-0.896,1.589-1.236l99.046-61.881L94.667,264.79c0.265-0.088,0.529-0.265,0.794-0.353
		c5.386-2.648,10.858-5.12,16.509-7.327L257.271,401.265z"/>
	<path style="fill:#CBB292;" d="M510.181,44.454l-33.897,33.898l-40.608-40.607l33.899-33.898c1.775-1.82,4.21-2.847,6.753-2.847
		c2.543,0,4.978,1.027,6.753,2.847l27.1,27.101c1.821,1.775,2.847,4.21,2.847,6.753C513.028,40.244,512.002,42.679,510.181,44.454z"
		/>
</g>
<g>
</g>
<g>
</g>
<g>
</g>
<g>
</g>
<g>
</g>
<g>
</g>
<g>
</g>
<g>
</g>
<g>
</g>
<g>
</g>
<g>
</g>
<g>
</g>
<g>
</g>
<g>
</g>
<g>
</g>
</svg>
